<svg width="190" height="106" fill="none" xmlns="http://www.w3.org/2000/svg"><g clip-path="url(#clip0_45_3699)"><path d="M101.176 16.04l-3.463 3.672 5.92 6.273-19.288 20.219L59.87 38.41V13.56l24.475-7.79 4.431 4.752 3.503-3.63L85.812 0 54.844 9.858v32.257l30.968 9.858L110.6 25.985l-9.424-9.944z" fill="#307FE2"/><path d="M88.82 35.932l3.467-3.672-5.92-6.272L105.65 5.77l24.479 7.792v24.85l-24.479 7.793-4.439-4.764-3.503 3.633 6.479 6.9 30.968-9.854V9.859L104.188 0 79.4 25.988l9.42 9.944z" fill="#307FE2"/><path d="M4.145 78.639V63.748H0v21.946h3.349L16.256 70.8v14.894h4.142V63.748h-3.345L4.145 78.638zm36.171-7.489H28.522v-7.402h-4.141v21.946h4.141V74.912h11.794v10.782h4.145V63.748h-4.145v7.402zm6.848-3.64h7.97v18.184h4.141V67.51h7.97v-3.762h-20.08v3.762zm22.784 18.184h19.125v-3.761h-14.98v-7.056h11.314v-3.762H74.094V67.51h14.98v-3.762H69.948v21.946zm66.194-21.946h-20.718v21.946h4.145v-7.052l8.925-.78c4.779-.408 7.648-3.293 7.648-6.899v-7.215zm-4.145 7.056c0 2.338-1.91 3.118-3.666 3.29l-8.762.78v-7.368h12.428v3.297zm55.292-7.056h-4.462l-7.173 14.89-7.169-14.89h-4.463l-2.71 21.946h4.145l1.91-15.678 5.739 11.916h5.1l5.734-11.916 1.915 15.678H190l-2.711-21.946zM92.414 85.694h4.145V67.51h16.574v-3.762H92.414v21.946zm49.938-21.946l-7.64 21.946h4.303l2.434-6.895.075-.223h11.239l.084.223 2.377 6.895h4.3l-7.648-21.946h-9.524zm.238 11.386l2.774-7.624h3.508l2.298 6.654.353.97h-8.933zM19.887 104.685a5.096 5.096 0 01-.936-2.939c0-1.051.326-2.077.936-2.94a3.65 3.65 0 011.325-.998 3.711 3.711 0 011.639-.315 3.816 3.816 0 011.64.323c.516.227.972.566 1.336.99.636.85.96 1.886.92 2.94a4.526 4.526 0 01-.92 2.939 3.711 3.711 0 01-1.333.996 3.753 3.753 0 01-1.643.317 3.68 3.68 0 01-1.64-.312 3.631 3.631 0 01-1.324-1.001zm5.048-.671c.454-.67.678-1.464.643-2.268a3.679 3.679 0 00-.643-2.27c-.26-.288-.58-.52-.938-.678a2.813 2.813 0 00-3.215.679 3.68 3.68 0 00-.646 2.269 3.6 3.6 0 00.646 2.268c.256.296.574.534.933.697a2.764 2.764 0 003.22-.697zm4.605-1.98v3.8h-1.129v-8.166h1.13v3.469h1.735l2.228-3.469h1.339l-2.584 3.898 2.814 4.257H33.72l-2.445-3.789H29.54zm6.888 2.651a5.096 5.096 0 01-.935-2.939c0-1.051.326-2.077.935-2.94a3.65 3.65 0 011.326-.998 3.711 3.711 0 011.639-.315 3.808 3.808 0 011.638.323c.515.227.97.566 1.334.99a4.58 4.58 0 01.923 2.94 4.506 4.506 0 01-.923 2.939 3.7 3.7 0 01-1.331.996 3.745 3.745 0 01-1.641.317 3.68 3.68 0 01-1.64-.311 3.628 3.628 0 01-1.325-1.002zm5.037-.671a3.75 3.75 0 00.646-2.268 3.68 3.68 0 00-.646-2.27 2.752 2.752 0 00-.935-.684 2.793 2.793 0 00-2.279 0 2.75 2.75 0 00-.935.685 3.68 3.68 0 00-.646 2.269 3.6 3.6 0 00.646 2.268c.256.296.573.534.932.697a2.76 2.76 0 003.217-.697zm9.967-6.346v8.166H50.3v-2.95h-4.24v2.95h-1.12v-8.166h1.117v4.128h4.24v-4.128h1.134zm7.903 0v8.166h-1.11v-3.652a2.783 2.783 0 01-2.16.928 2.96 2.96 0 01-1.277-.272 2.901 2.901 0 01-1.03-.793c-.55-.693-.657-1.559-.657-2.487v-1.89h1.133v1.688c0 .818.056 1.508.508 2.042a1.822 1.822 0 001.474.647 1.844 1.844 0 001.533-.682c.22-.316.367-.677.428-1.056.03-.213.046-.428.048-.643v-1.996h1.11zm6.654 6.681h-3.75l-.495 1.485h-1.141l2.734-8.166h1.585l2.731 8.166H66.5l-.511-1.485zm-.345-1.033l-1.534-4.514-1.526 4.514h3.06zm8.94-4.549h-2.802v7.067h-1.121v-7.067h-2.774v-1.099H74.6l-.016 1.1zm2.434 0v2.437h3.4v1.091h-3.412v2.436h4.106v1.103H75.9v-8.166h5.223v1.1h-4.105zm12.535 7.067h-1.118v-7.125H85.23l-.55 4.596c-.187 1.559-.742 2.654-2.355 2.529v-.99c.936-.019 1.19-.678 1.328-1.754l.658-5.422h5.243v8.166zm8.366-2.6a2.555 2.555 0 01-.646 1.669c-.3.363-.701.634-1.153.779-.275.099-.565.15-.857.149h-3.566v-8.163h1.117v2.982h2.465a2.697 2.697 0 012.065.963c.377.458.58 1.032.575 1.621zm-1.49-.962a1.593 1.593 0 00-1.189-.589h-2.457v3.118h2.457a1.6 1.6 0 001.094-.487 1.64 1.64 0 00.427-1.068 1.464 1.464 0 00-.332-.974zm9.519-4.604v8.166h-1.122v-2.95h-4.252v2.95h-1.133v-8.166h1.121v4.128h4.252v-4.128h1.134zm7.76 3.945c.382.456.591 1.03.59 1.621a2.551 2.551 0 01-.646 1.669c-.3.363-.701.634-1.153.779-.274.099-.564.15-.856.149h-3.567v-8.163h1.118v2.982h2.465c.392.002.779.09 1.133.256.355.167.667.408.916.707zm-.9.659a1.59 1.59 0 00-1.189-.589h-2.457v3.118h2.457a1.6 1.6 0 001.094-.487c.267-.294.419-.673.428-1.068.014-.352-.1-.697-.321-.974h-.012zm3.749-4.604v8.166h-1.106v-8.166h1.106zm8.35-.003v8.167h-1.141V99.68l-4.185 6.152h-1.003v-8.167h1.13v6.14l4.208-6.148.991.008zm-1.371-2.272c-.021.408-.2.793-.502 1.076a1.635 1.635 0 01-2.234 0 1.583 1.583 0 01-.502-1.076h.9c.001.189.077.37.213.504a.74.74 0 00.512.213.727.727 0 00.661-.445.688.688 0 00.052-.272h.9zm12.226 8.078a2.368 2.368 0 01-.503 1.431c-.332.386-.77.67-1.261.819-.335.082-.68.12-1.026.113h-3.171v-8.167h2.996c.311-.013.622.017.924.09a2.31 2.31 0 011.153.775c.294.369.464.819.488 1.287.021.485-.144.96-.464 1.329a2.08 2.08 0 01-.242.297c.243.151.454.347.622.576.324.416.495.927.484 1.45zm-4.819-4.775v2.339h2.112a1.282 1.282 0 00.931-.475 1.152 1.152 0 00-.067-1.49 1.15 1.15 0 00-.864-.39l-2.112.016zm3.689 4.775a1.416 1.416 0 00-.792-1.267 1.387 1.387 0 00-.591-.136h-2.306v2.729h2.017c.543 0 .923-.035 1.28-.39.251-.248.393-.585.392-.936zm8.402-1.858c.381.457.59 1.03.591 1.621a2.58 2.58 0 01-.646 1.669 2.482 2.482 0 01-1.154.779c-.274.099-.564.15-.856.149h-3.566v-8.163h1.121v2.982h2.465c.392.003.778.091 1.132.257.353.166.665.407.913.706zm-.9.659a1.594 1.594 0 00-1.188-.589h-2.454v3.118h2.454a1.618 1.618 0 001.097-.487c.268-.294.42-.673.428-1.068.009-.354-.112-.7-.341-.974h.004zm3.749-4.604v8.166h-1.117v-8.166h1.117zm8.248 5.566a2.562 2.562 0 01-.646 1.669c-.3.364-.701.635-1.154.779-.272.1-.561.15-.852.149h-3.586v-8.163h5.386v1.1h-4.273v1.882h2.469c.395.001.785.087 1.142.254.357.166.673.408.923.709.381.457.59 1.03.591 1.621zm-1.487-.962a1.595 1.595 0 00-1.189-.589h-2.457v3.118h2.457c.416-.015.809-.19 1.094-.487.268-.294.42-.673.428-1.068a1.475 1.475 0 00-.337-.974h.004zm3.492 2.413a5.098 5.098 0 01-.936-2.939c0-1.051.327-2.077.936-2.94.358-.429.811-.77 1.325-.998a3.716 3.716 0 011.639-.315 3.82 3.82 0 011.641.323c.515.227.971.566 1.335.99a4.6 4.6 0 01.92 2.94 4.528 4.528 0 01-.92 2.939 3.707 3.707 0 01-1.333.996 3.754 3.754 0 01-1.643.317 3.68 3.68 0 01-1.64-.312 3.63 3.63 0 01-1.324-1.001zm5.041-.671a3.72 3.72 0 00.642-2.268 3.68 3.68 0 00-.642-2.27 2.77 2.77 0 00-.938-.678 2.813 2.813 0 00-2.277 0 2.77 2.77 0 00-.938.679 3.673 3.673 0 00-.646 2.269 3.598 3.598 0 00.646 2.268 2.725 2.725 0 002.076.944c.395 0 .785-.084 1.144-.247a2.72 2.72 0 00.933-.697zm9.135-2.156a2.64 2.64 0 01-.92.719 2.693 2.693 0 01-1.145.256h-2.469v2.986h-1.118v-8.15h3.587c.29-.003.579.045.852.143.453.145.854.416 1.153.78.412.462.641 1.054.646 1.668a2.498 2.498 0 01-.586 1.598zm-.555-1.609a1.647 1.647 0 00-.428-1.069 1.624 1.624 0 00-1.094-.487h-2.457v3.099h2.457a1.6 1.6 0 001.189-.581c.218-.268.336-.603.333-.947v-.015z" fill="#1F2128"/></g><defs><clipPath id="clip0_45_3699"><path fill="#fff" d="M0 0h190v106H0z"/></clipPath></defs></svg>